<svg width="1200" height="1200" viewBox="0 0 1200 1200" fill="none" xmlns="http://www.w3.org/2000/svg">
<rect width="1200" height="1200" rx="151" fill="#154733"/>
<path d="M1062.27 174.71C1051.6 174.71 1042.97 183.363 1042.97 194.016V251.931C1042.97 283.863 1016.98 309.847 985.052 309.847C953.121 309.847 927.137 283.863 927.137 251.931V194.016C927.137 183.363 918.51 174.71 907.832 174.71C897.154 174.71 888.527 183.363 888.527 194.016V251.931C888.527 298.53 921.751 337.529 965.747 346.509V464.288H888.527V406.372C888.527 395.72 879.9 387.067 869.221 387.067H618.254V290.541H792.001C802.679 290.541 811.306 281.888 811.306 271.236V136.1C811.306 125.448 802.679 116.795 792.001 116.795H405.898C395.22 116.795 386.593 125.448 386.593 136.1V271.236C386.593 281.888 395.22 290.541 405.898 290.541H579.644V387.067H328.677C317.999 387.067 309.372 395.72 309.372 406.372V464.288H232.151V346.509C276.147 337.528 309.372 298.557 309.372 251.931V194.016C309.372 183.363 300.745 174.71 290.067 174.71C279.389 174.71 270.762 183.363 270.762 194.016V251.931C270.762 283.863 244.778 309.847 212.846 309.847C180.914 309.847 154.931 283.863 154.931 251.931V194.016C154.931 183.363 146.304 174.71 135.625 174.71C124.947 174.71 116.32 183.363 116.32 194.016V251.931C116.32 298.53 149.545 337.529 193.541 346.509V483.593C193.541 494.245 202.168 502.898 212.846 502.898H309.372V734.56H212.846C180.914 734.56 154.931 760.544 154.931 792.475V1062.75C154.931 1073.4 163.558 1082.05 174.236 1082.05H328.677C339.355 1082.05 347.982 1073.4 347.982 1062.75V889.001H849.916V1062.75C849.916 1073.4 858.543 1082.05 869.221 1082.05H1023.66C1034.34 1082.05 1042.97 1073.4 1042.97 1062.75V792.475C1042.97 760.544 1016.98 734.56 985.052 734.56H888.527V502.898H985.052C995.731 502.898 1004.36 494.245 1004.36 483.593V346.509C1048.35 337.528 1081.58 298.557 1081.58 251.931V194.016C1081.58 183.363 1072.95 174.71 1062.27 174.71ZM772.696 251.931H618.254V155.405H772.696V251.931ZM425.203 251.931V155.405H579.644V251.931H425.203ZM309.372 1043.44H193.541V792.475C193.541 781.84 202.194 773.17 212.846 773.17H309.372V1043.44ZM347.982 850.391V425.677H849.916V850.391H347.982ZM985.052 773.17C995.705 773.17 1004.36 781.84 1004.36 792.475V1043.44H888.527V773.17H985.052Z" fill="white"/>
<path d="M811.307 502.898C811.307 524.22 794.018 541.509 772.696 541.509C751.374 541.509 734.086 524.22 734.086 502.898C734.086 481.576 751.374 464.288 772.696 464.288C794.018 464.288 811.307 481.576 811.307 502.898Z" fill="white"/>
<path d="M695.475 502.898C695.475 524.22 678.186 541.509 656.864 541.509C635.542 541.509 618.254 524.22 618.254 502.898C618.254 481.576 635.542 464.288 656.864 464.288C678.186 464.288 695.475 481.576 695.475 502.898Z" fill="white"/>
</svg>
